<svg width="36" height="36" viewBox="0 0 36 36" fill="none" xmlns="http://www.w3.org/2000/svg">
<path d="M25.9055 18.9961C26.4561 18.9961 26.9025 18.5497 26.9025 17.9991C26.9025 17.4485 26.4561 17.0021 25.9055 17.0021L18.997 17.0021L18.997 10.0937C18.997 9.54301 18.5506 9.09663 18 9.09663C17.4494 9.09663 17.003 9.54301 17.003 10.0937L17.003 17.0021L10.0945 17.0021C9.54391 17.0021 9.09753 17.4485 9.09753 17.9991C9.09753 18.5497 9.54391 18.9961 10.0945 18.9961H17.003V25.9046C17.003 26.4552 17.4494 26.9016 18 26.9016C18.5506 26.9016 18.997 26.4552 18.997 25.9046V18.9961H25.9055Z" fill="#00B140"/>
</svg>
